<?xml version="1.0" encoding="UTF-8"?>
<svg id="Layer_1" data-name="Layer 1" xmlns="http://www.w3.org/2000/svg" viewBox="0 0 126.63 38.33">
  <defs>
    <style>
      .cls-1 {
        fill: #84983a;
      }

      .cls-2 {
        fill: #53331e;
      }

      .cls-3 {
        fill: #fff;
      }
    </style>
  </defs>
  <path class="cls-2" d="M59.47,29.08l-6.38-19.13h4.82l3.97,12.49,3.27-11.33h4.37l3.27,11.33,3.81-12.49h4.66l-6.05,19.13h-4.29l-3.95-12.84h.74l-3.95,12.84h-4.29,0Z"/>
  <path class="cls-2" d="M86.3,29.06c-1.38,0-2.62-.3-3.72-.91-1.08-.62-1.93-1.46-2.56-2.52-.62-1.08-.94-2.3-.94-3.65s.31-2.59.94-3.65c.62-1.06,1.48-1.9,2.56-2.5,1.1-.6,2.34-.91,3.72-.91s2.61.3,3.69.91c1.08.6,1.93,1.44,2.56,2.5s.94,2.28.94,3.65-.31,2.57-.94,3.65c-.62,1.06-1.48,1.9-2.56,2.52-1.08.6-2.31.91-3.69.91ZM86.3,25.44c.62,0,1.16-.13,1.59-.39.43-.27.76-.67.96-1.18.23-.53.34-1.16.34-1.9s-.11-1.37-.34-1.87c-.21-.51-.53-.89-.96-1.15-.43-.27-.96-.41-1.59-.41s-1.15.14-1.59.41c-.43.25-.77.64-.99,1.15-.23.49-.34,1.12-.34,1.87s.11,1.36.34,1.9c.23.51.56.91.99,1.18.43.25.96.39,1.59.39Z"/>
  <path class="cls-2" d="M101.82,29.06c-1.38,0-2.62-.3-3.72-.91-1.08-.62-1.93-1.46-2.56-2.52-.62-1.08-.94-2.3-.94-3.65s.31-2.59.94-3.65,1.48-1.9,2.56-2.5c1.1-.6,2.34-.91,3.72-.91s2.61.3,3.69.91c1.08.6,1.93,1.44,2.56,2.5s.94,2.28.94,3.65-.31,2.57-.94,3.65c-.62,1.06-1.48,1.9-2.56,2.52-1.08.6-2.31.91-3.69.91ZM101.82,25.44c.62,0,1.16-.13,1.59-.39.43-.27.76-.67.96-1.18.23-.53.34-1.16.34-1.9s-.11-1.37-.34-1.87c-.21-.51-.53-.89-.96-1.15-.43-.27-.96-.41-1.59-.41s-1.16.14-1.59.41c-.43.25-.77.64-.99,1.15-.23.49-.34,1.12-.34,1.87s.11,1.36.34,1.9c.23.51.56.91.99,1.18.43.25.96.39,1.59.39Z"/>
  <path class="cls-2" d="M115.68,29.06c-1.21,0-2.24-.3-3.1-.91-.85-.62-1.51-1.46-1.96-2.52-.43-1.08-.65-2.3-.65-3.65,0-1.52.25-2.8.77-3.84s1.2-1.84,2.07-2.39,1.83-.82,2.87-.82c.66,0,1.3.14,1.93.41.62.27,1.17.72,1.62,1.35.46.62.76,1.47.91,2.55l-.77-.6v-9h4.26v19.13h-4.26v-3.35l.88-.82c-.23,1.26-.59,2.22-1.11,2.86s-1.08,1.07-1.7,1.29c-.61.22-1.19.33-1.76.33h0ZM117.01,25.27c.59,0,1.08-.13,1.48-.39.41-.27.73-.66.94-1.15.23-.49.34-1.08.34-1.76s-.11-1.25-.34-1.73c-.21-.49-.52-.87-.94-1.12-.4-.27-.89-.41-1.48-.41s-1.06.13-1.48.39c-.42.25-.74.63-.96,1.12-.21.48-.31,1.06-.31,1.76s.1,1.29.31,1.78c.23.49.55.87.96,1.12.42.25.91.39,1.48.39h0Z"/>
  <path class="cls-1" d="M47.56,5.18c-.15-.43-.57-.73-1.04-.73H6.84c-.6,0-1.09.47-1.09,1.05v27.18c0,.58.49,1.05,1.09,1.05h48.81c.74,0,1.27-.7,1.04-1.38l-9.13-27.18h0Z"/>
  <path class="cls-3" d="M12.01,29.08V9.95h13.41v3.84h-8.95v3.51h7.78v3.84h-7.78v7.93h-4.46,0Z"/>
  <path class="cls-3" d="M34.68,29.08l-.34-1.59v-7c0-.64-.24-1.1-.71-1.37-.47-.27-1.06-.41-1.76-.41-.74,0-1.52.14-2.36.41-.83.25-1.53.57-2.1.96l-1.82-2.91c1.12-.71,2.2-1.21,3.24-1.48,1.06-.29,2.2-.44,3.41-.44,1.99,0,3.54.48,4.66,1.43,1.14.93,1.7,2.2,1.7,3.82v8.59h-3.92,0ZM30.73,29.39c-1.01,0-1.92-.18-2.75-.55-.82-.39-1.47-.92-1.96-1.62-.47-.69-.71-1.5-.71-2.42,0-.79.17-1.47.51-2.06.36-.59.83-1.03,1.42-1.35.43-.24.93-.41,1.48-.52s1.14-.16,1.76-.16h4.21v3.05h-3.58c-.23,0-.43.02-.62.05-.17.04-.32.1-.46.19s-.24.21-.31.36c-.07.13-.11.27-.11.44,0,.39.16.7.48.93.34.22.78.33,1.33.33s1.01-.1,1.45-.3c.46-.22.82-.51,1.08-.88s.4-.79.4-1.26l.91,2.33c-.36.93-.8,1.65-1.3,2.14-.49.49-1.02.83-1.59,1.01-.55.18-1.09.27-1.62.27h0Z"/>
  <path class="cls-3" d="M47.98,29.39c-.57,0-1.17-.11-1.79-.33-.61-.22-1.17-.65-1.67-1.29-.49-.64-.86-1.59-1.11-2.86l.88.82v3.35h-4.26V9.96h4.26v9l-.77.6c.15-1.08.46-1.93.91-2.55.46-.62.99-1.07,1.62-1.35.64-.27,1.29-.41,1.93-.41,1.06,0,2.01.27,2.87.82.87.55,1.56,1.35,2.07,2.39.51,1.04.77,2.32.77,3.84,0,1.35-.23,2.57-.68,3.65-.43,1.06-1.08,1.9-1.93,2.52-.85.6-1.88.91-3.1.91h0ZM46.65,25.6c.59,0,1.08-.13,1.48-.39.41-.25.73-.63.94-1.12.23-.49.34-1.09.34-1.78s-.11-1.28-.34-1.76c-.21-.49-.52-.87-.94-1.12-.4-.25-.89-.39-1.48-.39s-1.06.14-1.48.41c-.41.25-.74.63-.96,1.12-.21.48-.31,1.05-.31,1.73s.1,1.26.31,1.76c.23.49.55.88.96,1.15.42.25.91.39,1.48.39h0Z"/>
</svg>